<?xml version="1.0" encoding="utf-8"?>
<!-- Generator: Adobe Illustrator 16.0.0, SVG Export Plug-In . SVG Version: 6.00 Build 0)  -->
<!DOCTYPE svg PUBLIC "-//W3C//DTD SVG 1.1//EN" "http://www.w3.org/Graphics/SVG/1.1/DTD/svg11.dtd">
<svg version="1.1" id="Layer_1" xmlns="http://www.w3.org/2000/svg" xmlns:xlink="http://www.w3.org/1999/xlink" x="0px" y="0px"
	 width="22.194px" height="32px" viewBox="0 0 22.194 32" enable-background="new 0 0 22.194 32" xml:space="preserve">
<path fill-rule="evenodd" clip-rule="evenodd" fill="#E44126" d="M20.77,5.263l-0.016,0.025c-0.456,0.33-0.743,0.773-0.884,1.316
	l-0.016-0.016l0.02,0.012c-0.203,0.023-0.257,0.193-0.319,0.338c-0.376,0.85-0.837,1.653-1.035,2.59
	c-0.168,0.794-0.328,1.585-0.325,2.387c0.004,1.074,0.197,2.125,0.481,3.173c0.281,1.033,0.681,2.011,1.112,2.976
	c0.256,0.57,0.548,1.133,0.731,1.725c0.372,1.209,0.454,2.45,0.328,3.72c-0.096,0.959-0.409,1.834-0.733,2.723
	c-0.128,0.351-0.464,0.614-0.418,1.03l0.002-0.002c-0.361,0.136-0.487,0.447-0.583,0.78l-0.028-0.019l0.028,0.018
	c-0.106,0.001-0.164,0.046-0.142,0.16c0,0-0.005,0.007-0.007,0.007c-0.058-0.013-0.079,0.01-0.062,0.066l-0.008,0.011
	c-0.22,0.028-0.338,0.163-0.382,0.372l-0.026-0.021l0.024,0.023c-0.136-0.038-0.188,0.009-0.146,0.146l-0.007,0.006
	c-0.21-0.052-0.3,0.114-0.428,0.223c-0.287,0.239-0.551,0.534-0.98,0.498c0.334-0.33,0.667-0.661,0.999-0.992
	c0.063,0.002,0.116-0.01,0.142-0.077l0.002-0.002c0.068-0.024,0.078-0.081,0.076-0.145c0.212-0.312,0.418-0.624,0.548-0.986
	c0.409-1.153,0.365-2.329,0.159-3.502c-0.211-1.195-0.693-2.313-1.059-3.464c-0.674-2.134-1.198-4.283-1.092-6.548
	c0.036-0.789,0.18-1.544,0.449-2.282c0.034-0.096,0.166-0.22,0.028-0.295c-0.104-0.057-0.188,0.077-0.267,0.161
	c-0.533,0.563-0.927,1.221-1.283,1.901c-0.82,1.568-1.411,3.227-1.938,4.912c-0.03,0.095-0.022,0.212-0.15,0.231
	c-0.085,0.013-0.139-0.059-0.181-0.119c-0.51-0.734-1.009-1.479-1.319-2.324c-0.686-1.864-0.88-3.813-0.927-5.78
	c-0.019-0.766,0.043-1.534,0.067-2.302c0.005-0.164,0.039-0.328,0.042-0.486c0.012-0.534,0.145-1.062,0.089-1.71
	C11.224,6,11.13,6.176,11.078,6.363c-0.701,2.505-1.359,5.02-1.902,7.564c-0.492,2.309-0.941,4.623-1.301,6.956
	c-0.01,0.07,0.022,0.172-0.069,0.196c-0.119,0.03-0.129-0.085-0.162-0.163c-0.201-0.488-0.381-0.988-0.607-1.464
	c-0.865-1.819-1.736-3.637-2.625-5.445c-0.119-0.24-0.206-0.523-0.458-0.733c-0.005,0.092-0.011,0.142-0.009,0.191
	c0.002,0.063,0.009,0.126,0.018,0.188c0.214,1.468,0.21,2.93-0.088,4.388c-0.284,1.386-0.832,2.687-1.281,4.019
	c-0.462,1.368-0.335,2.689,0.381,3.927c0.644,1.111,1.456,2.101,2.441,2.935c0.228,0.193,0.484,0.354,0.727,0.529
	c0.006,0.166,0.117,0.155,0.231,0.139c0.322-0.013,0.545,0.236,0.833,0.313c-0.168,0.142-0.357,0.094-0.537,0.043
	c-0.385-0.11-0.782-0.159-1.17-0.252c-0.689-0.165-1.325-0.423-1.936-0.78c-0.252-0.147-0.356-0.51-0.718-0.482l-0.006-0.007
	c-0.094-0.529-0.502-0.84-0.833-1.202L2,27.212c-0.11-0.521-0.366-0.966-0.712-1.363c-0.005-0.006-0.024,0-0.036,0.001l0.029-0.012
	l-0.03,0.01c0.047-0.102,0.026-0.195-0.021-0.29c-0.587-1.21-0.978-2.478-1.079-3.825C0.141,21.606,0.076,21.63,0,21.651
	c0-0.58,0-1.16,0-1.741c0.105-0.003,0.113-0.09,0.124-0.16c0.299-1.861,0.977-3.625,1.415-5.451
	c0.602-2.515,0.769-5.055,0.525-7.627C2.027,6.285,2.033,5.892,1.916,5.514C1.878,5.392,1.841,5.232,1.975,5.18
	c0.123-0.047,0.2,0.102,0.27,0.199c0.896,1.224,1.663,2.528,2.36,3.873c1.005,1.939,1.813,3.965,2.604,5.998
	c0.068,0.175,0.144,0.346,0.284,0.52c0.1-0.556,0.198-1.112,0.301-1.667c0.672-3.623,1.461-7.215,2.742-10.68
	c0.397-1.077,0.841-2.136,1.484-3.097C12.095,0.213,12.176,0.104,12.305,0c-0.602,4.359,0.233,8.516,1.649,12.708
	c0.182-0.393,0.317-0.695,0.46-0.992c1.52-3.169,3.715-5.744,6.706-7.62c0.063-0.039,0.133-0.068,0.2-0.101
	c0.188,0.039,0.3-0.19,0.49-0.143l0.002,0.002c-0.131,0.284-0.502,0.405-0.524,0.765l0.004-0.001
	c-0.247-0.037-0.245,0.127-0.237,0.295l0,0C20.859,4.947,20.75,5.052,20.77,5.263z"/>
<path fill-rule="evenodd" clip-rule="evenodd" fill="#E7DF1B" d="M14.617,31.071c-0.235,0.266-0.592,0.31-0.877,0.484
	c-0.195,0.118-0.457,0.149-0.562,0.397c-0.125,0-0.252,0-0.378,0c0.016-0.093-0.062-0.125-0.112-0.177
	c-0.348-0.356-0.809-0.521-1.243-0.732c0.024-0.008,0.049-0.015,0.071-0.025c0.005-0.003,0.006-0.032,0-0.034
	c-0.127-0.079-0.25-0.169-0.385-0.229c-1.055-0.476-2.112-0.946-3.157-1.443C6.57,28.646,5.5,27.636,4.77,26.277
	c-0.601-1.117-0.524-2.309-0.264-3.499c0.228-1.044,0.535-2.069,0.673-3.133c0.024-0.188,0.028-0.375,0.048-0.563
	c0.02-0.186,0.062-0.368,0.095-0.551c0.303,0.75,0.672,1.432,1.107,2.081c0.72,1.073,1.708,1.915,2.488,2.936
	c0.043,0.058,0.094,0.138,0.18,0.107c0.09-0.031,0.064-0.126,0.066-0.197c0.047-1.37,0.128-2.739,0.304-4.1
	c0.164-1.26,0.34-2.519,0.852-3.699c0.075-0.175,0.117-0.384,0.374-0.504c-0.206,1.163-0.011,2.249,0.28,3.319
	c0.476,1.749,1.229,3.384,2.117,4.959c0.035,0.063,0.057,0.158,0.152,0.135c0.085-0.021,0.084-0.116,0.106-0.188
	c0.196-0.65,0.381-1.304,0.59-1.949c0.255-0.792,0.551-1.571,0.994-2.279c0.213-0.342,0.448-0.688,0.905-0.895
	c-0.182,0.426-0.372,0.778-0.392,1.19c-0.066,1.333,0.252,2.597,0.694,3.834c0.321,0.899,0.688,1.78,1.012,2.679
	c0.284,0.791,0.222,1.479-0.247,2.204c-0.599,0.932-1.347,1.723-2.098,2.52C14.708,30.791,14.505,30.857,14.617,31.071z
	 M5.688,22.138c-0.026,0.015-0.052,0.028-0.078,0.042c0.007,0.062,0.004,0.125,0.021,0.184c0.289,0.987,0.405,1.987,0.294,3.019
	c-0.106,0.997,0.155,1.875,0.977,2.524c0.267,0.21,0.52,0.44,0.807,0.62c1.661,1.037,3.432,1.86,5.216,2.66
	c0.144,0.064,0.258,0.038,0.392-0.024c0.576-0.267,1.102-0.614,1.564-1.043c0.846-0.786,1.249-1.658,0.784-2.864
	c-0.447-1.163-0.869-2.367-0.601-3.706c-0.091,0.039-0.143,0.047-0.175,0.076c-0.598,0.528-1.04,1.153-1.254,1.935
	c-0.187,0.684-0.209,1.392-0.37,2.077c-0.025,0.107,0.001,0.25-0.141,0.278c-0.125,0.024-0.15-0.11-0.207-0.188
	c-0.611-0.829-1.064-1.739-1.408-2.706c-0.16-0.454-0.296-0.917-0.442-1.373c-0.102,0.024-0.133,0.079-0.144,0.143
	c-0.152,0.878-0.381,1.746-0.399,2.645c-0.002,0.121,0.035,0.276-0.108,0.335c-0.121,0.05-0.209-0.074-0.293-0.137
	c-1.243-0.936-2.333-2.032-3.338-3.216C6.42,22.989,6.054,22.564,5.688,22.138z"/>
<path fill-rule="evenodd" clip-rule="evenodd" fill="#D15833" d="M1.25,25.848c-0.55-0.984-0.905-2.038-1.118-3.143
	C0.107,22.576,0.14,22.423,0,22.333c0-0.227,0-0.454,0-0.682c0.076-0.021,0.141-0.045,0.15,0.081
	c0.101,1.348,0.492,2.615,1.079,3.825C1.276,25.652,1.297,25.746,1.25,25.848z"/>
<path fill-rule="evenodd" clip-rule="evenodd" fill="#E58C25" d="M11.446,31.044c-1.035-0.279-2.066-0.578-3.129-0.739
	c-0.095-0.015-0.186-0.053-0.278-0.081c-0.235-0.216-0.54-0.254-0.833-0.32c-0.288-0.077-0.511-0.326-0.833-0.313
	c-0.055-0.083-0.127-0.138-0.231-0.139c-0.243-0.176-0.5-0.336-0.727-0.529c-0.986-0.834-1.798-1.823-2.441-2.935
	c-0.717-1.237-0.844-2.559-0.381-3.927c0.45-1.332,0.997-2.633,1.281-4.019c0.298-1.458,0.302-2.92,0.088-4.388
	c-0.009-0.062-0.016-0.125-0.018-0.188c-0.002-0.049,0.004-0.099,0.009-0.191c0.253,0.21,0.34,0.493,0.458,0.733
	c0.889,1.808,1.761,3.626,2.625,5.445c0.227,0.476,0.407,0.976,0.607,1.464c0.033,0.078,0.043,0.193,0.162,0.163
	c0.091-0.024,0.059-0.126,0.069-0.196c0.359-2.333,0.809-4.647,1.301-6.956c0.543-2.544,1.202-5.06,1.902-7.564
	C11.13,6.176,11.224,6,11.339,5.721c0.056,0.649-0.077,1.177-0.089,1.71c-0.004,0.159-0.037,0.323-0.042,0.486
	c-0.023,0.768-0.085,1.536-0.067,2.302c0.046,1.966,0.241,3.916,0.927,5.78c0.31,0.846,0.809,1.59,1.319,2.324
	c0.042,0.061,0.096,0.132,0.181,0.119c0.128-0.02,0.12-0.137,0.15-0.231c0.528-1.685,1.118-3.343,1.938-4.912
	c0.356-0.68,0.75-1.338,1.283-1.901c0.079-0.083,0.163-0.218,0.267-0.161c0.138,0.076,0.006,0.2-0.028,0.295
	c-0.269,0.738-0.413,1.494-0.449,2.282c-0.105,2.265,0.418,4.414,1.092,6.548c0.365,1.15,0.848,2.269,1.059,3.464
	c0.206,1.173,0.25,2.349-0.159,3.502c-0.13,0.362-0.336,0.675-0.548,0.986c-0.058,0.032-0.074,0.084-0.076,0.145l-0.002,0.002
	c-0.062,0.002-0.113,0.02-0.142,0.077c-0.332,0.331-0.664,0.662-0.999,0.992c-0.353,0.277-0.744,0.51-1.038,0.859
	c-0.393,0.304-0.837,0.508-1.299,0.68c-0.112-0.213,0.091-0.279,0.189-0.385c0.75-0.797,1.499-1.588,2.098-2.52
	c0.468-0.726,0.531-1.413,0.247-2.204c-0.325-0.898-0.691-1.779-1.012-2.679c-0.442-1.237-0.76-2.501-0.694-3.834
	c0.02-0.412,0.21-0.765,0.392-1.19c-0.458,0.207-0.692,0.553-0.905,0.895c-0.443,0.708-0.739,1.487-0.994,2.279
	c-0.209,0.646-0.395,1.299-0.59,1.949c-0.022,0.071-0.021,0.166-0.106,0.188c-0.095,0.023-0.117-0.072-0.152-0.135
	c-0.888-1.575-1.641-3.21-2.117-4.959c-0.291-1.07-0.485-2.156-0.28-3.319c-0.257,0.121-0.299,0.329-0.374,0.504
	c-0.512,1.18-0.688,2.439-0.852,3.699c-0.176,1.36-0.257,2.729-0.304,4.1c-0.002,0.071,0.024,0.166-0.066,0.197
	c-0.085,0.03-0.136-0.05-0.18-0.107c-0.779-1.021-1.768-1.862-2.488-2.936c-0.436-0.649-0.805-1.331-1.107-2.081
	c-0.033,0.183-0.075,0.365-0.095,0.551c-0.02,0.188-0.024,0.375-0.048,0.563c-0.138,1.063-0.445,2.089-0.673,3.133
	c-0.26,1.19-0.336,2.382,0.264,3.499c0.73,1.358,1.801,2.368,3.205,3.034c1.045,0.497,2.103,0.968,3.157,1.443
	c0.136,0.061,0.258,0.15,0.385,0.229c0.006,0.002,0.005,0.031,0,0.034C11.495,31.029,11.47,31.036,11.446,31.044z"/>
<path fill-rule="evenodd" clip-rule="evenodd" fill="#D15833" d="M19.696,27.262c-0.046-0.416,0.29-0.68,0.418-1.03
	c0.324-0.889,0.638-1.764,0.733-2.723c0.126-1.27,0.044-2.511-0.328-3.72c-0.184-0.592-0.476-1.154-0.731-1.725
	c-0.432-0.965-0.831-1.943-1.112-2.976c-0.284-1.048-0.478-2.099-0.481-3.173c-0.003-0.802,0.157-1.593,0.325-2.387
	c0.198-0.937,0.659-1.74,1.035-2.59c0.063-0.145,0.116-0.314,0.319-0.338c-0.503,0.946-0.967,1.907-1.236,2.952
	c-0.54,2.098-0.318,4.146,0.355,6.173c0.35,1.054,0.8,2.066,1.265,3.071c1.031,2.24,0.989,4.516,0.242,6.813
	C20.311,26.194,20.082,26.768,19.696,27.262z"/>
<path fill-rule="evenodd" clip-rule="evenodd" fill="#D15833" d="M15.916,30.391c0.294-0.35,0.685-0.582,1.038-0.859
	c0.429,0.036,0.693-0.259,0.98-0.498c0.128-0.108,0.218-0.274,0.428-0.223C17.624,29.459,16.87,30.08,15.916,30.391z"/>
<path fill-rule="evenodd" clip-rule="evenodd" fill="#D15833" d="M21.812,3.852c-0.19-0.047-0.302,0.181-0.49,0.143
	c0.198-0.199,0.46-0.3,0.699-0.436c0.055-0.032,0.124-0.038,0.162,0.029c0.032,0.053-0.008,0.093-0.044,0.13
	c-0.283,0.3-0.565,0.602-0.85,0.902c0.022-0.36,0.394-0.481,0.524-0.765c0.006-0.011,0.012-0.022,0.018-0.033
	C21.825,3.831,21.817,3.841,21.812,3.852z"/>
<path fill-rule="evenodd" clip-rule="evenodd" fill="#D15833" d="M19.87,6.604c0.141-0.543,0.428-0.987,0.884-1.316
	C20.46,5.727,20.164,6.166,19.87,6.604z"/>
<path fill-rule="evenodd" clip-rule="evenodd" fill="#D15833" d="M19.115,28.04c0.096-0.333,0.222-0.645,0.583-0.78
	C19.564,27.565,19.359,27.818,19.115,28.04z"/>
<path fill-rule="evenodd" clip-rule="evenodd" fill="#D15833" d="M18.516,28.655c0.044-0.209,0.162-0.344,0.382-0.372
	C18.813,28.451,18.68,28.568,18.516,28.655z"/>
<path fill-rule="evenodd" clip-rule="evenodd" fill="#D15833" d="M20.77,5.263c-0.02-0.211,0.09-0.316,0.286-0.35
	C20.996,5.059,20.901,5.175,20.77,5.263z"/>
<path fill-rule="evenodd" clip-rule="evenodd" fill="#D15833" d="M21.056,4.913c-0.008-0.168-0.01-0.333,0.237-0.295
	C21.249,4.745,21.161,4.835,21.056,4.913z"/>
<path fill-rule="evenodd" clip-rule="evenodd" fill="#D15833" d="M18.368,28.805c-0.042-0.138,0.01-0.185,0.146-0.146
	C18.493,28.733,18.443,28.783,18.368,28.805z"/>
<path fill-rule="evenodd" clip-rule="evenodd" fill="#D15833" d="M18.974,28.199c-0.022-0.114,0.035-0.159,0.142-0.16
	C19.097,28.118,19.047,28.169,18.974,28.199z"/>
<path fill-rule="evenodd" clip-rule="evenodd" fill="#D15833" d="M18.905,28.272c-0.018-0.057,0.004-0.079,0.062-0.066
	C18.947,28.229,18.927,28.25,18.905,28.272z"/>
<path fill-rule="evenodd" clip-rule="evenodd" fill="#D15833" d="M7.206,29.903c0.293,0.066,0.598,0.104,0.833,0.32
	c-0.188,0.141-0.386,0.014-0.56-0.017c-1.133-0.194-2.286-0.331-3.339-0.838c-0.485-0.234-0.964-0.486-1.294-0.938
	c0.361-0.027,0.466,0.335,0.718,0.482c0.61,0.357,1.247,0.615,1.936,0.78c0.389,0.093,0.786,0.142,1.17,0.252
	C6.849,29.997,7.038,30.045,7.206,29.903z"/>
<path fill-rule="evenodd" clip-rule="evenodd" fill="#D15833" d="M2.839,28.425c-0.382-0.328-0.602-0.77-0.833-1.202
	C2.337,27.585,2.746,27.896,2.839,28.425z"/>
<path fill-rule="evenodd" clip-rule="evenodd" fill="#D15833" d="M2,27.212c-0.293-0.43-0.553-0.878-0.748-1.362
	c0.012-0.001,0.031-0.007,0.036-0.001C1.634,26.246,1.889,26.69,2,27.212z"/>
<path fill-rule="evenodd" clip-rule="evenodd" fill="#D15833" d="M6.142,29.451c0.104,0.001,0.177,0.056,0.231,0.139
	C6.259,29.606,6.147,29.617,6.142,29.451z"/>
<path fill-rule="evenodd" clip-rule="evenodd" fill="#D15833" d="M18.096,28.46c0.002-0.061,0.019-0.112,0.076-0.145
	C18.174,28.379,18.164,28.436,18.096,28.46z"/>
<path fill-rule="evenodd" clip-rule="evenodd" fill="#D15833" d="M17.952,28.539c0.028-0.058,0.08-0.075,0.142-0.077
	C18.068,28.529,18.016,28.541,17.952,28.539z"/>
<path fill-rule="evenodd" clip-rule="evenodd" fill="#FAF49D" d="M5.688,22.138c0.365,0.427,0.732,0.852,1.096,1.28
	c1.005,1.184,2.095,2.28,3.338,3.216c0.084,0.063,0.173,0.187,0.293,0.137c0.143-0.059,0.106-0.214,0.108-0.335
	c0.018-0.898,0.247-1.767,0.399-2.645c0.011-0.063,0.042-0.118,0.144-0.143c0.146,0.456,0.282,0.919,0.442,1.373
	c0.343,0.967,0.796,1.877,1.408,2.706c0.057,0.077,0.082,0.212,0.207,0.188c0.142-0.028,0.116-0.171,0.141-0.278
	c0.16-0.686,0.183-1.394,0.37-2.077c0.215-0.781,0.657-1.406,1.254-1.935c0.032-0.029,0.083-0.037,0.175-0.076
	c-0.268,1.339,0.154,2.543,0.601,3.706c0.465,1.206,0.063,2.078-0.784,2.864c-0.462,0.429-0.988,0.776-1.564,1.043
	c-0.134,0.063-0.248,0.089-0.392,0.024c-1.784-0.8-3.555-1.623-5.216-2.66c-0.287-0.18-0.54-0.41-0.807-0.62
	c-0.822-0.649-1.083-1.527-0.977-2.524c0.111-1.031-0.005-2.031-0.294-3.019c-0.017-0.059-0.014-0.122-0.021-0.184
	C5.637,22.166,5.662,22.152,5.688,22.138z"/>
<path fill-rule="evenodd" clip-rule="evenodd" fill="#E44126" d="M21.812,3.852c0.006-0.01,0.014-0.021,0.02-0.031
	c-0.006,0.011-0.012,0.022-0.018,0.033L21.812,3.852z"/>
</svg>
